<svg xmlns="http://www.w3.org/2000/svg" xmlns:xlink="http://www.w3.org/1999/xlink" width="567.311" height="615" viewBox="0 0 567.311 615">
  <defs>
    <clipPath id="clip-path">
      <path id="Path_73" data-name="Path 73" d="M47.5-42.88C73.734-42.88,95-5.319,95,20.915a47.5,47.5,0,0,1-95,0C0-5.319,21.266-42.88,47.5-42.88Z" transform="translate(0 42.88)" fill="#cbd7f9"/>
    </clipPath>
  </defs>
  <g id="backg" transform="translate(-172.689)">
    <rect id="Rectangle_17" data-name="Rectangle 17" width="567" height="615" transform="translate(173)" fill="#f5f5f5"/>
    <g id="ManLaptop" transform="translate(471 240)">
      <circle id="Ellipse_11" data-name="Ellipse 11" cx="47.5" cy="47.5" r="47.5" transform="translate(167 176.415)" fill="#cbd7f9"/>
      <g id="Mask_Group_1" data-name="Mask Group 1" transform="translate(167 160.12)" clip-path="url(#clip-path)">
        <g id="undraw_coding_6mjf" transform="translate(3.8 2.626)">
          <path id="Path_44" data-name="Path 44" d="M440.893,57.57h0A12.753,12.753,0,0,0,428.14,70.323v5.441h25.505V70.323A12.753,12.753,0,0,0,440.893,57.57Z" transform="translate(-398.939 -56.606)" fill="#e14b5a"/>
          <ellipse id="Ellipse_9" data-name="Ellipse 9" cx="14.536" cy="9.988" rx="14.536" ry="9.988" transform="translate(27.328 10.952)" fill="#e14b5a"/>
          <path id="Path_45" data-name="Path 45" d="M619.4,274.412s-3.038,15.874,0,20.156-9.281,5.975-9.281,5.975l-12.751-4.637-1.784-11.416s7.763-4.371,6.154-13.2Z" transform="translate(-568.219 -243.795)" fill="#f7c4a7"/>
          <path id="Path_46" data-name="Path 46" d="M748.588,583.607s-.8,3.478,3.567,4.1a24.714,24.714,0,0,0,7.776-.093l.964-8.736H750.728Z" transform="translate(-735.041 -499.479)" fill="#f7c4a7"/>
          <path id="Path_47" data-name="Path 47" d="M384.462,555.872s1.931,7.845-2.44,8.554-20.419.714-20.419.714v-9.281l7.266,1.553,6.821-6.541Z" transform="translate(-293.738 -476.196)" fill="#f7c4a7"/>
          <path id="Path_48" data-name="Path 48" d="M404.062,316.377l17.079,3.611s6.51.268,10.7,8.919,13.289,33.356,13.289,33.356-7.763-7.849-16.857.535l-6.065-10.969,1.338,17.392H376.555v-8.206s-9.81,5.262-9.1,8.2c0,0-8.4-21.631-6.581-31.46a66.858,66.858,0,0,0,1-9.2h0a12.319,12.319,0,0,1,8.67-11.251c.884-.272,1.856-.526,2.936-.754,10.078-2.14,12.656,0,12.656,0s1.952,6.352,1.917,9.231c-.044,3.7,5.262,6.154,5.262,6.154s7.849-1.873,8.2-3.389S404.69,318.16,404.062,316.377Z" transform="translate(-353.818 -280.632)" opacity="0.1"/>
          <path id="Path_49" data-name="Path 49" d="M404.052,314.267l17.079,3.611s6.51.268,10.7,8.919,13.291,33.359,13.291,33.359-7.763-7.849-16.857.535L422.2,349.721l1.338,17.387h-47v-8.2s-9.81,5.262-9.1,8.2c0,0-8.4-21.631-6.581-31.46a66.863,66.863,0,0,0,1-9.2h0a12.319,12.319,0,0,1,8.67-11.251c.884-.272,1.856-.527,2.936-.754,10.078-2.14,12.656,0,12.656,0s1.952,6.352,1.917,9.231c-.044,3.7,5.262,6.154,5.262,6.154s7.849-1.873,8.2-3.389S404.68,316.05,404.052,314.267Z" transform="translate(-353.808 -278.878)" fill="#575988"/>
          <path id="Path_50" data-name="Path 50" d="M600,282.392a12.071,12.071,0,0,0,.466-6.332l17.662,3.12s-.255,1.335-.543,3.335A12.127,12.127,0,0,1,600,282.392Z" transform="translate(-567.208 -247.76)" opacity="0.1"/>
          <path id="Path_51" data-name="Path 51" d="M581.531,199.924a12.129,12.129,0,1,0,24.256.294c0-.1,0-.2,0-.294a12.126,12.126,0,0,0-14.163-11.959h0a12.12,12.12,0,0,0-10.059,11.154Q581.531,199.519,581.531,199.924Z" transform="translate(-551.752 -174.39)" fill="#f7c4a7"/>
          <g id="Group_1" data-name="Group 1" transform="translate(29.813 13.849)" opacity="0.1">
            <path id="Path_52" data-name="Path 52" d="M581.547,193.88l-.017-.01a12.119,12.119,0,0,1,7.92,11.379v.294a2.7,2.7,0,0,1-1.088-.262c-2.957-1.38-4.725-5.6-5.427-8.547C582.681,195.679,582.443,194.491,581.547,193.88Z" transform="translate(-565.227 -193.289)"/>
            <path id="Path_53" data-name="Path 53" d="M628.847,191.36a12.027,12.027,0,0,1,3.016-.93,3.892,3.892,0,0,0-2.165,1.36,5.548,5.548,0,0,0-.663,1.181,12.162,12.162,0,0,1,10.2.211c-.761,1.669-3.122,2.579-4.7,3.188q-2.589,1-5.231,1.828l1.559-1.266-3.522.56a6.1,6.1,0,0,1,.246-2.076,21.43,21.43,0,0,1-2.3,1.181c-1.372.866-1.944,2.531-2.692,3.974a2.634,2.634,0,0,1-.786,1.013A12.135,12.135,0,0,1,628.847,191.36Z" transform="translate(-621.81 -190.43)"/>
          </g>
          <path id="Path_54" data-name="Path 54" d="M581.547,192.25l-.017-.01a12.119,12.119,0,0,1,7.92,11.379v.294a2.7,2.7,0,0,1-1.088-.262c-2.957-1.38-4.725-5.6-5.427-8.547C582.681,194.056,582.443,192.863,581.547,192.25Z" transform="translate(-535.413 -178.085)" fill="#632652"/>
          <path id="Path_55" data-name="Path 55" d="M628.847,189.74a12.028,12.028,0,0,1,3.016-.93,3.891,3.891,0,0,0-2.165,1.36,5.548,5.548,0,0,0-.663,1.181,12.162,12.162,0,0,1,10.2.211c-.761,1.669-3.122,2.579-4.7,3.188q-2.589,1-5.231,1.828l1.559-1.266-3.522.56a6.1,6.1,0,0,1,.246-2.076,21.427,21.427,0,0,1-2.3,1.181c-1.372.866-1.944,2.531-2.692,3.974a2.634,2.634,0,0,1-.786,1.013A12.135,12.135,0,0,1,628.847,189.74Z" transform="translate(-591.997 -175.234)" fill="#632652"/>
          <path id="Path_56" data-name="Path 56" d="M600.264,190.963s-12.488-15.525-26.935,0l1.249-3.478s6.779-9.9,11.593-7.763,9.543,3.657,9.543,3.657Z" transform="translate(-544.845 -167.429)" opacity="0.1"/>
          <path id="Path_57" data-name="Path 57" d="M600.264,189.333s-12.488-15.525-26.935,0l1.249-3.478s6.779-9.9,11.593-7.763,9.543,3.657,9.543,3.657Z" transform="translate(-544.845 -166.074)" fill="#e14b5a"/>
          <path id="Path_58" data-name="Path 58" d="M501.507,444.38s2.675,7.135-1.07,13.556,3.3,9.1,3.3,9.1" transform="translate(-435.83 -387.676)" opacity="0.1"/>
          <path id="Path_59" data-name="Path 59" d="M764.622,406.33s-4.637,5.886-1.6,11.148,2.854,17.927,2.854,17.927" transform="translate(-742.289 -356.047)" opacity="0.1"/>
          <path id="Path_60" data-name="Path 60" d="M369.29,553.3H317.741a4.281,4.281,0,0,0-4.281,4.281h60.109A4.281,4.281,0,0,0,369.29,553.3Z" transform="translate(-299.511 -468.681)" fill="#535461"/>
          <path id="Path_61" data-name="Path 61" d="M378.542,378.89H337.481a6.581,6.581,0,0,0-6.581,6.581V409.3h54.223V385.471A6.581,6.581,0,0,0,378.542,378.89Z" transform="translate(-314.008 -323.703)" fill="#535461"/>
          <circle id="Ellipse_10" data-name="Ellipse 10" cx="3.211" cy="3.211" r="3.211" transform="translate(40.838 68.52)" fill="#fff"/>
          <path id="Path_62" data-name="Path 62" d="M603.067,177.518s-12.272-12.265-25.507-.224" transform="translate(-548.361 -161.261)" fill="none" stroke="#000" stroke-miterlimit="10" stroke-width="1" opacity="0.1"/>
          <rect id="Rectangle_40" data-name="Rectangle 40" width="1.232" height="6.985" transform="translate(26.099 15.476)" fill="#6a5c99"/>
          <path id="Path_63" data-name="Path 63" d="M584.866,170.35h0a4.246,4.246,0,0,0-4.246,4.246v.273a4.246,4.246,0,0,0,4.246,4.246h0Z" transform="translate(-555.891 -150.355)" fill="#ffd037"/>
          <rect id="Rectangle_41" data-name="Rectangle 41" width="1.917" height="9.587" rx="0.959" transform="translate(27.879 19.585)" fill="#6a5c99"/>
          <rect id="Rectangle_42" data-name="Rectangle 42" width="1.232" height="6.985" transform="translate(56.701 15.613)" fill="#6a5c99"/>
          <path id="Path_64" data-name="Path 64" d="M0,8.765H0A4.246,4.246,0,0,0,4.246,4.519V4.246A4.246,4.246,0,0,0,0,0H0Z" transform="translate(55.057 20.132)" fill="#ffd037"/>
          <rect id="Rectangle_43" data-name="Rectangle 43" width="1.917" height="9.587" rx="0.959" transform="translate(54.235 19.72)" fill="#6a5c99"/>
          <path id="Path_65" data-name="Path 65" d="M558.131,116.371c1.669-3.47,5.3-7.665,13.139-8v-.01h.094l2.776.132v.014c7.783.358,11.4,4.538,13.065,8a17.987,17.987,0,0,1,1.725,7.493l-.958-.024-.958-.022a16.31,16.31,0,0,0-1.558-6.669c-2.113-4.34-6-6.647-11.554-6.861h0l-2.455-.137h0c-5.557.213-9.447,2.523-11.558,6.861a16.309,16.309,0,0,0-1.561,6.672l-.959.022-.958.024a17.987,17.987,0,0,1,1.721-7.489Z" transform="translate(-530.655 -108.36)" fill="#ffd037"/>
          <rect id="Rectangle_48" data-name="Rectangle 48" width="84.74" height="20.52" transform="translate(0 88.529)" fill="#463a29"/>
        </g>
      </g>
    </g>
    <g id="GirlShortHair" transform="translate(93 -57)">
      <path id="Path_6" data-name="Path 6" d="M374,212.75A47.527,47.527,0,0,1,348.979,254.6c-.576.313-1.153.607-1.738.889a47.573,47.573,0,0,1-41.633-.075q-1.676-.818-3.272-1.768c-1.082-.633-2.133-1.315-3.153-2.036a47.508,47.508,0,0,1,5.88-81.256,46.707,46.707,0,0,1,9.06-3.475q2.072-.561,4.213-.932a47.552,47.552,0,0,1,8.163-.7c.563,0,1.122.009,1.68.035q.614.013,1.227.053a47.24,47.24,0,0,1,12.548,2.485c.347.119.695.242,1.038.369q1.794.66,3.51,1.469A47.49,47.49,0,0,1,374,212.75Z" transform="translate(-199 23.128)" fill="#d5e1ff"/>
      <path id="Path_36" data-name="Path 36" d="M430.343,347.873a45.026,45.026,0,0,0,6.715,4.167l2.473-8.279.3-1.051.756-2.626-.814-.128-7.446-1.237-.365,2.463Z" transform="translate(-331.322 -74.009)" fill="#ffb8b8"/>
      <path id="Path_9" data-name="Path 9" d="M440.6,347.29a47.54,47.54,0,0,1-6.8,4.442l-2.3-7.983-.3-1.051-.756-2.626.814-.128,8.33-1.315.268,2.265Z" transform="translate(-283.835 -73.997)" fill="#ffb8b8"/>
      <path id="Path_7" data-name="Path 7" d="M369.817,147.055c-4.322-10.2-15.322-12.122-15.322-12.122s-10.592-2.826-19.438,10.632c-8.245,12.544-18.877,24.3-5.393,29.3l3.562-7.48.427,8.609a54.894,54.894,0,0,0,5.936.9c14.956,1.519,29.055,4.046,29.316-1.359C369.252,168.351,373.975,156.866,369.817,147.055Z" transform="translate(-223.778 40.25)" fill="#2f2e41"/>
      <path id="Path_8" data-name="Path 8" d="M332.336,349.917l-.352,2.824-.669,5.313q-1.676-.818-3.272-1.768c-1.082-.633-2.133-1.315-3.154-2.036l.106-2.74.119-3.039,4.882.981Z" transform="translate(-204.916 -149.44)" fill="#ffb8b8"/>
      <circle id="Ellipse_2" data-name="Ellipse 2" cx="12.992" cy="12.992" r="12.992" transform="translate(117.732 182.346)" fill="#ffb8b8"/>
      <path id="Path_10" data-name="Path 10" d="M371.237,192.564s.962,16.361-1.925,17.323,14.917,0,14.917,0-2.406-10.105,0-12.992S371.237,192.564,371.237,192.564Z" transform="translate(-249.415 7.827)" fill="#ffb8b8"/>
      <path id="Path_11" data-name="Path 11" d="M373.535,225.389s-12.511-.962-14.917,0-9.143,5.774-9.143,5.774l3.368,30.316,27.428,5.774L384.6,261l4.331-9.143-1.925-11.549-.481-6.737Z" transform="translate(-238.479 -10.321)" fill="#c75e5e"/>
      <path id="Path_12" data-name="Path 12" d="M332.359,243.44s-6.256,1.444-6.737,6.256-.481,16.842,0,18.767,0,2.887-.481,3.368-1.444-.481-.481.962.962,1.444.481,2.887-1.925-.481-.962,1.925,1.444,2.887.962,3.368-1.925,11.549-1.925,11.549l8.18,1.444,8.18-28.391Z" transform="translate(-223.77 -20.673)" fill="#c75e5e"/>
      <path id="Path_13" data-name="Path 13" d="M425.054,243.44a5.128,5.128,0,0,1,4.331,2.887c1.444,2.887,5.293,21.654,4.812,23.1s-1.444-.481-.481,2.406,0,2.406.481,4.331-1.925,0,0,1.925,2.887,2.406,1.925,3.368-2.406-.962-.962.962a9.183,9.183,0,0,1,1.444,4.812l-11.549,2.406-3.368-26.947Z" transform="translate(-278.051 -20.673)" fill="#c75e5e"/>
      <path id="Path_14" data-name="Path 14" d="M376.389,287.674l.576,8.867a47.573,47.573,0,0,1-41.633-.075q-1.676-.818-3.272-1.768c.369-1.359.743-2.714,1.126-4.042q.409-1.418.827-2.793c2.159-7.068,4.486-13.08,6.668-15.415,0,0,0-5.291.963-5.775a3.179,3.179,0,0,0,1.02-1.4,18.765,18.765,0,0,0,.906-2.45l-1.592-3.7-7.125-16.59a2.027,2.027,0,0,1,.954-2.608l2.362-1.183a2.028,2.028,0,0,1,2.722.924l10.859,22.2,12.029,7.7,8.436-3.752.224-.1s6.259-9.623,4.332-14.435c-.822-2.054-1.728-4.8-2.507-7.275-.453-1.46-.858-2.828-1.174-3.9a.865.865,0,0,1,1.311-.963l1.641,1.1a2.386,2.386,0,0,1,.849,1.007,2.168,2.168,0,0,1,.167.5l3.563,17.236-4.812,10.1V278.7l.334,5.168.176,2.7Z" transform="translate(-228.724 -17.922)" fill="#2f2e41"/>
      <path id="Path_15" data-name="Path 15" d="M230.153,34.282l-11.025-5.775L203.9,30.869l-3.15,13.912,7.841-.3,2.191-5.112V44.4l3.618-.139,2.1-8.137,1.312,8.662,12.862-.262Z" transform="translate(-86.557 149.319)" fill="#2f2e41"/>
      <ellipse id="Ellipse_3" data-name="Ellipse 3" cx="1.444" cy="2.526" rx="1.444" ry="2.526" transform="translate(116.048 192.812)" fill="#ffb8b8"/>
    </g>
    <g id="GirlLongHair" transform="translate(19 88)">
      <path id="Path_16" data-name="Path 16" d="M884.147,386.842c0,18.586-12.555,34.316-29.856,39.58a42.551,42.551,0,0,1-7.832,1.613,43.645,43.645,0,0,1-4.884.273c-.607,0-1.21-.011-1.809-.042h-.01a43.138,43.138,0,0,1-17.51-4.469,42.648,42.648,0,0,1-10.454-7.326A40.8,40.8,0,0,1,799,386.842a41.514,41.514,0,0,1,27.069-38.628,42.362,42.362,0,0,1,5.822-1.758,43.872,43.872,0,0,1,22.071.71c.544.154,1.084.326,1.616.511,0,0,.008,0,.012,0a40.241,40.241,0,0,1,3.768,1.482c.422.184.844.38,1.258.587q1.242.6,2.436,1.286c.307.173.611.349.911.534a42.293,42.293,0,0,1,12.476,11.472,40.723,40.723,0,0,1,6.5,13.991,40.291,40.291,0,0,1,1.2,9.81Z" transform="translate(-173 -205.497)" fill="#bcceff"/>
      <path id="Path_17" data-name="Path 17" d="M965.7,265.827l5.828-1.77.5-5s-14.175-5.215-18.707,4.01a14.759,14.759,0,0,1-5.556,6.381,10.485,10.485,0,0,1-8.915.748c-9.824-3.495-12.137,6.443-12.137,6.443s.849,1.415,6.9,1.762c3.014.173,5.48,2.382,7.2,4.557A7.6,7.6,0,0,0,953.9,280.68q.045-.135.088-.274c2.9-9.243,16.085-1.884,16.085-1.884l.842-8.372Z" transform="translate(-251.19 -151.75)" fill="#2f2e41"/>
      <ellipse id="Ellipse_4" data-name="Ellipse 4" cx="7.138" cy="6.952" rx="7.138" ry="6.952" transform="translate(667.658 122.797)" fill="#2f2e41"/>
      <ellipse id="Ellipse_5" data-name="Ellipse 5" cx="19.035" cy="18.54" rx="19.035" ry="18.54" transform="translate(652.193 129.749)" fill="#2f2e41"/>
      <ellipse id="Ellipse_6" data-name="Ellipse 6" cx="13.086" cy="12.746" rx="13.086" ry="12.746" transform="translate(657.546 142.302)" fill="#a0616a"/>
      <path id="Path_18" data-name="Path 18" d="M900.81,406.959l2.379,12.36,11.9-1.545s-1.983-9.656-.793-12.36Z" transform="translate(-235.333 -242.255)" fill="#a0616a"/>
      <path id="Path_19" data-name="Path 19" d="M938.79,331.977s-9.518-6.952-13.483-4.249,10.707,11.587,12.293,10.815S938.79,331.977,938.79,331.977Z" transform="translate(-249.916 -194.31)" fill="#a0616a"/>
      <path id="Path_20" data-name="Path 20" d="M897.465,441.595a1.551,1.551,0,0,1-.008.192v0c-.244,5.521-10.679,22.418-16.7,30.534a42.542,42.542,0,0,1-7.833,1.613,43.656,43.656,0,0,1-4.884.273c-.607,0-1.21-.012-1.809-.042h-.008c-5.542-1.743-12.125-4.031-16.927-5.836-2.263-.856-4.131-1.6-5.306-2.131a7.606,7.606,0,0,1-1.254-.657c-1.983-1.547,2.381-2.707,4.364-3.091s-.792-4.634-.792-4.634c-7.139-7.341,1.585-13.518,1.585-13.518s3.567-7.341,3.567-9.272a.7.7,0,0,1,.154-.392c1.494-2.058,13.331-5.786,13.331-5.786V422.67l1.226-.2,12.062-1.958.986-.161,1.983,3.091,8.727,1.159S897.465,434.645,897.465,441.595Z" transform="translate(-199.47 -251.4)" fill="#533fc7"/>
      <path id="Path_21" data-name="Path 21" d="M853.519,464.117s-5.227,14.113-10,25.551c-.166.4-.331.795-.493,1.186-.2.461-.39.918-.583,1.367a42.648,42.648,0,0,1-10.454-7.325c2.144-6.792,5.546-17.584,6.859-21.934,1.447-4.8,4.793-5.675,6.5-5.8a5.208,5.208,0,0,1,1.037.008Z" transform="translate(-193.197 -273.923)" fill="#533fc7"/>
      <path id="Path_22" data-name="Path 22" d="M956.849,374.518l1.19-1.159s15.069-15.836,14.673-19.7c0,0-7.931-9.656-17.845-6.952,0,0-4.362-10.429,2.379-10.042s31.725-1.159,31.328,10.042-24.19,45.577-24.19,45.577Z" transform="translate(-267.579 -200.158)" fill="#533fc7"/>
      <path id="Path_23" data-name="Path 23" d="M875.249,545.3a43.656,43.656,0,0,1-4.884.273c-.607,0-1.21-.012-1.809-.042h-.008a43.14,43.14,0,0,1-17.51-4.469,42.518,42.518,0,0,1-5.01-2.929l.288-.568v0l.335-.653,5.463,1.6Z" transform="translate(-201.792 -322.758)" fill="#2f2e41"/>
      <ellipse id="Ellipse_7" data-name="Ellipse 7" cx="8.132" cy="13.053" rx="8.132" ry="13.053" transform="matrix(0.305, -0.952, 0.952, 0.305, 656.318, 148.964)" fill="#2f2e41"/>
    </g>
    <g id="Man" transform="translate(173 -118)">
      <path id="Path_25" data-name="Path 25" d="M375.312,704.209s11.506-11.89,14.574-4.6-11.506,11.123-11.506,11.123Z" transform="translate(-295.311 -211.897)" fill="#ffb8b8"/>
      <path id="Path_24" data-name="Path 24" d="M156,610.646a39.841,39.841,0,0,0,.46,6.048,39.442,39.442,0,0,0,13.679,24.189c.2.168.4.335.613.5q.646.52,1.313,1.01.963.711,1.97,1.361a39.46,39.46,0,0,0,35.92,3.509c.277-.109.554-.223.828-.339.438-.186.868-.379,1.3-.584q1.636-.761,3.192-1.674,1.6-.936,3.1-2.014c.456-.328.9-.66,1.339-1.007l.007,0a39.5,39.5,0,0,0,12.775-17.7v0a39.449,39.449,0,0,0-15.875-46.488c-.347-.219-.7-.438-1.051-.642-.365-.226-.737-.438-1.113-.642a39.066,39.066,0,0,0-16.444-4.826q-1.3-.087-2.615-.088c-.044,0-.088,0-.131,0q-1.773,0-3.5.164A39.4,39.4,0,0,0,156,610.646Z" transform="translate(-156 -131.864)" fill="#bcceff"/>
      <path id="Path_26" data-name="Path 26" d="M196.44,760.752q.646.52,1.313,1.01.963.711,1.97,1.361a39.46,39.46,0,0,0,35.92,3.509c.277-.109.554-.222.828-.339.438-.186.868-.379,1.3-.584l-1.01-1.452a11.3,11.3,0,0,0-2.44-1.74c-6.913-3.754-19.932-3.637-28.741-3.02-1.255.088-2.422.186-3.473.285-.657.058-1.269.12-1.828.179-.226.026-.441.047-.646.069-1.966.219-3.144.39-3.144.39Z" transform="translate(-181.688 -251.233)" fill="#2f2e41"/>
      <circle id="Ellipse_8" data-name="Ellipse 8" cx="11.022" cy="11.022" r="11.022" transform="translate(37.538 434.293)" fill="#ffb8b8"/>
      <path id="Path_27" data-name="Path 27" d="M251.085,597.529l-8.054,8.438-2.3,13.04,20.328,3.452-1.534-11.89s.384-5.753,1.918-6.9S251.085,597.529,251.085,597.529Z" transform="translate(-209.822 -148.557)" fill="#ffb8b8"/>
      <path id="Path_29" data-name="Path 29" d="M203.93,673.59a20.68,20.68,0,0,1,2.046-.544,30.626,30.626,0,0,1,5.286-.675,25.789,25.789,0,0,1,12.228,2.367c5.588,2.681,12.22,3.411,16.78,3.549.332.011.653.018.959.022.438-.186.868-.379,1.3-.584q1.636-.761,3.192-1.674l-.015-1.35-.241-26.7v0l-.113-12.764-7.285-8.437-1.871-2.108-.89.8-5.293,4.764L222.3,623.1l-2.641-2.444-12.669,42.647-1.634,5.5-.963,3.239-.15.5v0Z" transform="translate(-186.446 -163.25)" fill="#575a89"/>
      <path id="Path_30" data-name="Path 30" d="M284.618,641.322a38.611,38.611,0,0,0,.481,5.72c1.313,8.386,2.44,22.328,5.231,32.4.365,1.328.762,2.583,1.193,3.754l.131.361c.277-.109.554-.223.828-.339.438-.186.868-.379,1.3-.584q1.636-.761,3.192-1.674,1.6-.936,3.1-2.014l-.117-.46v0l-1.817-7.274s1.167-6.088,2.1-12.9v0c1.072-7.8,1.839-16.528.2-18.166L287.591,628.38l0,0a12.99,12.99,0,0,0-1.029,2.006A27.537,27.537,0,0,0,284.618,641.322Z" transform="translate(-237.7 -168.154)" fill="#92a0b3"/>
      <path id="Path_31" data-name="Path 31" d="M175.01,656.075a39.406,39.406,0,0,0,7.2,7.912c.2.168.4.336.613.5q.646.52,1.313,1.01.963.711,1.97,1.361c.5-.69,1-1.39,1.5-2.094q.443-.618.886-1.248c.467-.664.934-1.331,1.393-2,.058-.08.113-.16.168-.241.584-.843,1.16-1.689,1.722-2.532,4.144-6.19,7.58-12.133,7.974-15.682.474-4.25,1.434-10.823,2.408-17.1.627-4.078,1.262-8.033,1.769-11.137.613-3.772,1.036-6.3,1.036-6.3s-20.1-2.01-22.916-.036h0a.66.66,0,0,0-.317.438c-.306,2.138,1.335,22,2.014,30.029v0c.175,2.057.288,3.334.288,3.334s-1.149,1.536-2.834,4C179.475,648.8,177.2,652.281,175.01,656.075Z" transform="translate(-168.076 -154.968)" fill="#92a0b3"/>
      <path id="Path_32" data-name="Path 32" d="M316.285,690.053l1.918,14.958,16.876-7.287,5.37,11.123L312.834,719.2S307.847,692.738,316.285,690.053Z" transform="translate(-254.694 -207.33)" fill="#92a0b3"/>
      <path id="Path_33" data-name="Path 33" d="M277.839,560.081a5.4,5.4,0,0,0,1.346-3.642A11.545,11.545,0,0,1,279.4,553a33.976,33.976,0,0,0-1.161-5.235c-.692-1.921-.109-2.589-3.084-3.638s-1.081-4.841-9.854-1.818a2.4,2.4,0,0,1-2.61.534c-1.62-.593-2.6,1.632-2.6,1.632s-1.01-.829-1.577.033-3.308-1.1-4.314,5.167,2.446,11.859,2.446,11.859.484-10.032,6.181-10.213,12.14-2.34,12.939,1.884A30.829,30.829,0,0,0,277.839,560.081Z" transform="translate(-218.267 -112.75)" fill="#2f2e41"/>
      <path id="Path_34" data-name="Path 34" d="M194.76,755.14c.2.168.4.336.613.5q.646.52,1.313,1.011.963.711,1.97,1.361a39.137,39.137,0,0,0,10.455,4.757c.9-2.32-1.262-5.206-3.673-7.525-.306-.3-.62-.584-.927-.857-.73-.646-1.448-1.229-2.079-1.718-.029-.022-.055-.04-.08-.062-1.193-.919-2.057-1.485-2.057-1.485l-.766.558Z" transform="translate(-180.621 -246.121)" fill="#ffb8b8"/>
      <path id="Path_35" data-name="Path 35" d="M157.26,641.262a39.441,39.441,0,0,0,13.679,24.189c.2.168.4.336.613.5q.646.52,1.313,1.01l1.729-1.233v0l.8-.565,3.141-2.243.248-.179,2.411-1.722-.689-.81-3.159-3.717-7.423-8.733-1.769-2.079,4.315-5.253v0l4.505-5.483-3.834-24.546a4.078,4.078,0,0,0-2.364-.438h0a2.9,2.9,0,0,0-2.236,2.353C167.66,615.212,160.62,632.879,157.26,641.262Z" transform="translate(-156.8 -156.431)" fill="#92a0b3"/>
    </g>
    <g id="GirlLongHair-2" data-name="GirlLongHair" transform="translate(163 482.839)">
      <path id="Path_16-2" data-name="Path 16" d="M799,386.842c0,18.586,12.555,34.316,29.856,39.58a42.551,42.551,0,0,0,7.832,1.613,43.645,43.645,0,0,0,4.884.273c.607,0,1.21-.011,1.809-.042h.01A43.138,43.138,0,0,0,860.9,423.8a42.648,42.648,0,0,0,10.454-7.326,40.8,40.8,0,0,0,12.791-29.628,41.514,41.514,0,0,0-27.069-38.628,42.362,42.362,0,0,0-5.822-1.758,43.872,43.872,0,0,0-22.071.71c-.544.154-1.084.326-1.616.511,0,0-.008,0-.012,0a40.241,40.241,0,0,0-3.768,1.482c-.422.184-.844.38-1.258.587q-1.242.6-2.436,1.286c-.307.173-.611.349-.911.534a42.293,42.293,0,0,0-12.476,11.472,40.723,40.723,0,0,0-6.5,13.991,40.291,40.291,0,0,0-1.2,9.81Z" transform="translate(-789.311 -311.337)" fill="#bcceff"/>
      <ellipse id="Ellipse_4-2" data-name="Ellipse 4" cx="12.638" cy="11.452" rx="12.638" ry="11.452" transform="translate(34.902 12.957)" fill="#4a3607"/>
      <ellipse id="Ellipse_5-2" data-name="Ellipse 5" cx="19.035" cy="18.54" rx="19.035" ry="18.54" transform="translate(30.574 23.91)" fill="#4a3607"/>
      <ellipse id="Ellipse_6-2" data-name="Ellipse 6" cx="13.086" cy="12.746" rx="13.086" ry="12.746" transform="translate(37.117 36.463)" fill="#a0616a"/>
      <path id="Path_18-2" data-name="Path 18" d="M915.086,406.959l-2.379,12.36-11.9-1.545s1.983-9.656.793-12.36Z" transform="translate(-859.728 -348.094)" fill="#a0616a"/>
      <path id="Path_20-2" data-name="Path 20" d="M842.236,441.595a1.551,1.551,0,0,0,.008.192v0c.244,5.521,10.679,22.418,16.7,30.534a42.542,42.542,0,0,0,7.833,1.613,43.656,43.656,0,0,0,4.884.273c.607,0,1.21-.012,1.809-.042h.008c5.542-1.743,12.125-4.031,16.927-5.836,2.263-.856,4.131-1.6,5.306-2.131a7.606,7.606,0,0,0,1.254-.657c1.983-1.547-2.381-2.707-4.364-3.091s.792-4.634.792-4.634c7.139-7.341-1.585-13.518-1.585-13.518s-3.567-7.341-3.567-9.272a.7.7,0,0,0-.154-.392c-1.494-2.058-13.331-5.786-13.331-5.786V422.67l-1.226-.2-12.062-1.958-.986-.161-1.983,3.091-8.727,1.159S842.236,434.645,842.236,441.595Z" transform="translate(-819.395 -357.24)" fill="#3fc75f"/>
      <path id="Path_21-2" data-name="Path 21" d="M831.988,464.117s5.227,14.113,10,25.551c.166.4.331.795.493,1.186.2.461.39.918.583,1.367a42.648,42.648,0,0,0,10.454-7.325c-2.144-6.792-5.546-17.584-6.859-21.934-1.447-4.8-4.793-5.675-6.5-5.8a5.208,5.208,0,0,0-1.037.008Z" transform="translate(-771.475 -379.762)" fill="#3fc75f"/>
      <path id="Path_23-2" data-name="Path 23" d="M846.028,545.3a43.656,43.656,0,0,0,4.884.273c.607,0,1.21-.012,1.809-.042h.008a43.14,43.14,0,0,0,17.51-4.469,42.518,42.518,0,0,0,5.01-2.929l-.288-.568v0l-.335-.653-5.463,1.6Z" transform="translate(-798.648 -428.597)" fill="#2f2e41"/>
      <ellipse id="Ellipse_7-2" data-name="Ellipse 7" cx="8.132" cy="13.053" rx="8.132" ry="13.053" transform="translate(39.656 51.084) rotate(-107.751)" fill="#4a3607"/>
    </g>
    <g id="Path_74" data-name="Path 74" transform="translate(235)" fill="#efeded">
      <path d="M 440.5 613.5 L 1.5 613.5 L 1.5 1.5 L 440.5 1.5 L 440.5 613.5 Z" stroke="none"/>
      <path d="M 3 3 L 3 612 L 439 612 L 439 3 L 3 3 M 0 0 L 442 0 L 442 615 L 0 615 L 0 0 Z" stroke="none" fill="#d5cfcf"/>
    </g>
    <path id="Path_28" data-name="Path 28" d="M329.049,662.716" transform="translate(-156 -112.75)" fill="none" stroke="lime" stroke-miterlimit="10" stroke-width="1"/>
  </g>
</svg>
